<svg width="90" height="82" viewBox="0 0 90 82" fill="none" xmlns="http://www.w3.org/2000/svg">
<path fill-rule="evenodd" clip-rule="evenodd" d="M84.2419 24.5846C84.1556 24.7538 84.0506 24.916 83.8988 25.0561L31.575 72.7272C31.3706 73.0483 31.0875 73.3285 30.6844 73.4686L4.71188 80.0969C4.6575 80.1208 4.59563 80.1243 4.53563 80.1413L4.4475 80.1653C4.4325 80.1704 4.41563 80.167 4.4025 80.1721C4.22625 80.2148 4.05188 80.2507 3.86625 80.249C3.6825 80.2541 3.51188 80.2233 3.3375 80.1789C3.29813 80.1687 3.2625 80.1755 3.22313 80.1635C3.20813 80.1584 3.19875 80.1465 3.18375 80.1413C3.01875 80.085 2.87625 79.9995 2.73375 79.9005C2.66063 79.8526 2.58375 79.8099 2.52188 79.7535C2.46 79.6972 2.41313 79.6271 2.36063 79.5605C2.25188 79.4324 2.16 79.3008 2.09625 79.1505C2.08875 79.1368 2.0775 79.1283 2.07188 79.1146C2.05875 79.0805 2.06625 79.0463 2.055 79.0104C2.00813 78.8533 1.97438 78.6961 1.97813 78.5304C1.97813 78.3595 2.01563 78.2007 2.0625 78.0401C2.07 78.0264 2.06438 78.0128 2.07 78.0008L2.09625 77.9171C2.11688 77.8658 2.12063 77.8095 2.145 77.7582L9.42 54.0944C9.57375 53.7254 9.88125 53.4725 10.2338 53.2829L61.7569 6.33792C61.8319 6.26104 61.92 6.19613 61.9969 6.12096L62.5575 5.61017C62.5856 5.58454 62.6213 5.576 62.6513 5.55209C65.3588 3.19459 68.9925 1.70834 73.0369 1.70834C81.3694 1.70834 88.125 7.86346 88.125 15.4553C88.125 18.9762 86.6344 22.1554 84.2419 24.5846ZM77.1563 26.4792L70.3706 20.2967L26.0456 60.6834C26.0531 60.6971 26.0719 60.7022 26.0794 60.7159L30.5288 68.962L77.1563 26.4792ZM6.67313 75.9747L11.895 74.6439L8.13375 71.2187L6.67313 75.9747ZM9.26813 67.5304L15.9394 73.6104L27.4144 70.6806C27.4144 70.6806 22.5656 61.5034 22.5581 61.5L12.4819 57.0754L9.26813 67.5304ZM23.4188 58.2952C23.4338 58.302 23.4394 58.3174 23.4544 58.3259L67.7813 17.9375L60.9956 11.755L14.3681 54.2379L23.4188 58.2952ZM72.9788 5.125C69.6375 5.125 66.6563 6.45067 64.5619 8.53142L64.5488 8.51946L63.585 9.39584L79.7456 24.12L80.7338 23.218L80.7225 23.2077C82.9894 21.3012 84.4331 18.5935 84.4331 15.5612C84.4331 9.79729 79.305 5.125 72.9788 5.125Z" fill="#E5E5E5" fill-opacity="0.65"/>
</svg>
