<svg width="142" height="128" viewBox="0 0 142 128" fill="none" xmlns="http://www.w3.org/2000/svg">
<rect width="142" height="128" fill="white"/>
<path d="M21.0115 19.82V28.184" stroke="#E5E5E5" stroke-width="2" stroke-miterlimit="10" stroke-linecap="round" stroke-linejoin="round"/>
<path d="M25.6509 24.002H16.3721" stroke="#E5E5E5" stroke-width="2" stroke-miterlimit="10" stroke-linecap="round" stroke-linejoin="round"/>
<path d="M124.048 89.048V97.412" stroke="#E5E5E5" stroke-width="2" stroke-miterlimit="10" stroke-linecap="round" stroke-linejoin="round"/>
<path d="M128.688 93.23H119.409" stroke="#E5E5E5" stroke-width="2" stroke-miterlimit="10" stroke-linecap="round" stroke-linejoin="round"/>
<path d="M25.6509 37.576V42.242" stroke="#E5E5E5" stroke-miterlimit="10" stroke-linecap="round" stroke-linejoin="round"/>
<path d="M28.2402 39.91H23.0616" stroke="#E5E5E5" stroke-miterlimit="10" stroke-linecap="round" stroke-linejoin="round"/>
<path d="M115.717 104.334V109" stroke="#E5E5E5" stroke-miterlimit="10" stroke-linecap="round" stroke-linejoin="round"/>
<path d="M118.304 106.666H113.127" stroke="#E5E5E5" stroke-miterlimit="10" stroke-linecap="round" stroke-linejoin="round"/>
<path d="M115.717 46.042V50.708" stroke="#E5E5E5" stroke-miterlimit="10" stroke-linecap="round" stroke-linejoin="round"/>
<path d="M118.304 48.376H113.127" stroke="#E5E5E5" stroke-miterlimit="10" stroke-linecap="round" stroke-linejoin="round"/>
<path d="M28.2402 83.208V87.876" stroke="#E5E5E5" stroke-miterlimit="10" stroke-linecap="round" stroke-linejoin="round"/>
<path d="M30.8273 85.542H25.6509" stroke="#E5E5E5" stroke-miterlimit="10" stroke-linecap="round" stroke-linejoin="round"/>
<path d="M40.3591 91.432V28.184H102.111V86.234H49.8775" stroke="#E5E5E5" stroke-width="2" stroke-miterlimit="10" stroke-linecap="round" stroke-linejoin="round"/>
<path d="M40.3591 91.764V91.432" stroke="#E5E5E5" stroke-width="2" stroke-miterlimit="10" stroke-linecap="round" stroke-linejoin="round"/>
<path d="M102.111 99.816L48.7194 99.794" stroke="#E5E5E5" stroke-width="2" stroke-miterlimit="10" stroke-linecap="round" stroke-linejoin="round"/>
<path d="M40.3591 92.214C40.3258 92.476 40.3591 92.754 40.3591 93.024C40.3591 96.774 43.7316 99.814 47.8917 99.814C52.0519 99.814 55.4244 96.774 55.4244 93.024C55.4244 90.09 53.361 87.592 50.4699 86.642" stroke="#E5E5E5" stroke-width="2" stroke-miterlimit="10" stroke-linecap="round" stroke-linejoin="round"/>
<path d="M102.111 99.816C106.271 99.816 109.644 96.776 109.644 93.026C109.644 89.38 106.456 86.404 102.455 86.242" stroke="#E5E5E5" stroke-width="2" stroke-miterlimit="10" stroke-linecap="round" stroke-linejoin="round"/>
<path d="M53.9689 46.374L90.4917 46.334" stroke="#E5E5E5" stroke-width="2" stroke-miterlimit="10" stroke-linecap="round" stroke-linejoin="round"/>
<path d="M53.9689 53.49L90.4917 53.452" stroke="#E5E5E5" stroke-width="2" stroke-miterlimit="10" stroke-linecap="round" stroke-linejoin="round"/>
<path d="M53.9689 60.608L90.4917 60.57" stroke="#E5E5E5" stroke-width="2" stroke-miterlimit="10" stroke-linecap="round" stroke-linejoin="round"/>
<path d="M53.9689 67.726L90.4917 67.686" stroke="#E5E5E5" stroke-width="2" stroke-miterlimit="10" stroke-linecap="round" stroke-linejoin="round"/>
<path d="M53.9689 74.396L90.4917 74.356" stroke="#E5E5E5" stroke-width="2" stroke-miterlimit="10" stroke-linecap="round" stroke-linejoin="round"/>
</svg>
