<svg width="110" height="100" viewBox="0 0 110 100" fill="none" xmlns="http://www.w3.org/2000/svg">
<path d="M67.1988 94.873H42.799C42.5056 94.873 42.2242 94.979 42.0167 95.1677C41.8092 95.3563 41.6926 95.6121 41.6926 95.8789C41.6926 96.1457 41.8092 96.4015 42.0167 96.5902C42.2242 96.7788 42.5056 96.8848 42.799 96.8848H67.1988C67.4923 96.8848 67.7737 96.7788 67.9812 96.5902C68.1887 96.4015 68.3053 96.1457 68.3053 95.8789C68.3053 95.6121 68.1887 95.3563 67.9812 95.1677C67.7737 94.979 67.4923 94.873 67.1988 94.873Z" fill="#E5E5E5"/>
<path d="M16.051 57.9316C16.0513 57.7995 16.0228 57.6686 15.9673 57.5464C15.9118 57.4243 15.8303 57.3133 15.7275 57.2198C15.6247 57.1264 15.5027 57.0523 15.3683 57.0018C15.2339 56.9514 15.0899 56.9255 14.9445 56.9258H5.18418C4.89073 56.9258 4.6093 57.0318 4.40181 57.2204C4.19431 57.409 4.07774 57.6649 4.07774 57.9316C4.07774 58.1984 4.19431 58.4543 4.40181 58.6429C4.6093 58.8315 4.89073 58.9375 5.18418 58.9375H14.9445C15.0898 58.9375 15.2337 58.9115 15.368 58.8609C15.5022 58.8104 15.6242 58.7363 15.7269 58.6429C15.8297 58.5495 15.9112 58.4386 15.9668 58.3166C16.0224 58.1945 16.051 58.0637 16.051 57.9316Z" fill="#E5E5E5"/>
<path d="M21.9936 79.9922L14.2592 85.4141C14.0267 85.5772 13.875 85.8177 13.8376 86.0825C13.8001 86.3473 13.8799 86.6148 14.0594 86.8262C14.2389 87.0375 14.5034 87.1754 14.7947 87.2094C15.086 87.2435 15.3802 87.171 15.6127 87.0078L23.3471 81.5859C23.5796 81.4228 23.7312 81.1823 23.7687 80.9175C23.8061 80.6527 23.7264 80.3852 23.5469 80.1738C23.3674 79.9625 23.1029 79.8246 22.8116 79.7905C22.5203 79.7565 22.226 79.829 21.9936 79.9922Z" fill="#E5E5E5"/>
<path d="M14.3408 33.3984L21.8604 39.0625C21.9724 39.1468 22.1015 39.2101 22.2405 39.249C22.3794 39.2879 22.5254 39.3015 22.6702 39.2891C22.8149 39.2767 22.9555 39.2384 23.084 39.1766C23.2125 39.1148 23.3264 39.0305 23.419 38.9287C23.5117 38.8269 23.5814 38.7095 23.6242 38.5831C23.667 38.4568 23.6819 38.3241 23.6683 38.1925C23.6546 38.0609 23.6126 37.9331 23.5446 37.8163C23.4765 37.6995 23.3839 37.596 23.2719 37.5117L15.7523 31.8574C15.5251 31.7116 15.2457 31.6489 14.9699 31.6819C14.6941 31.715 14.4421 31.8412 14.264 32.0356C14.086 32.2299 13.9951 32.4781 14.0093 32.7306C14.0235 32.9832 14.1419 33.2216 14.3408 33.3984Z" fill="#E5E5E5"/>
<path d="M104.816 56.9258H95.0555C94.762 56.9258 94.4806 57.0318 94.2731 57.2204C94.0656 57.409 93.949 57.6649 93.949 57.9316C93.949 58.1984 94.0656 58.4543 94.2731 58.6429C94.4806 58.8315 94.762 58.9375 95.0555 58.9375H104.816C105.109 58.9375 105.391 58.8315 105.598 58.6429C105.806 58.4543 105.922 58.1984 105.922 57.9316C105.922 57.6649 105.806 57.409 105.598 57.2204C105.391 57.0318 105.109 56.9258 104.816 56.9258Z" fill="#E5E5E5"/>
<path d="M95.7322 85.4141L87.9979 79.9922C87.8827 79.9114 87.7513 79.852 87.6109 79.8174C87.4705 79.7828 87.3241 79.7737 87.1798 79.7906C87.0356 79.8074 86.8964 79.8499 86.7702 79.9157C86.6441 79.9815 86.5334 80.0692 86.4445 80.1738C86.3557 80.2785 86.2903 80.398 86.2523 80.5256C86.2142 80.6532 86.2042 80.7864 86.2227 80.9175C86.2413 81.0486 86.2881 81.1752 86.3604 81.2898C86.4328 81.4045 86.5292 81.5051 86.6443 81.5859L94.3787 87.0078C94.4938 87.0886 94.6253 87.148 94.7657 87.1826C94.906 87.2172 95.0525 87.2263 95.1968 87.2095C95.341 87.1926 95.4802 87.1501 95.6063 87.0843C95.7325 87.0185 95.8432 86.9308 95.932 86.8262C96.0209 86.7215 96.0862 86.602 96.1243 86.4744C96.1624 86.3468 96.1724 86.2136 96.1538 86.0825C96.1353 85.9514 96.0885 85.8249 96.0162 85.7102C95.9438 85.5955 95.8473 85.4949 95.7322 85.4141Z" fill="#E5E5E5"/>
<path d="M93.616 43.416C93.6396 42.7344 93.7879 36.6914 91.3365 34.3906C90.9768 34.0497 90.5358 33.7884 90.0475 33.6269V17.2207C90.0464 17.1756 90.0421 17.1306 90.0346 17.0859C90.0356 17.0762 90.0356 17.0664 90.0346 17.0566C90.0184 16.9683 89.9895 16.8823 89.9486 16.8008C89.9483 16.7943 89.9483 16.7878 89.9486 16.7812C89.9046 16.7011 89.8497 16.6264 89.7854 16.5586L89.7682 16.541C89.7359 16.5091 89.7015 16.4791 89.665 16.4512C89.6269 16.4228 89.5867 16.3967 89.5447 16.373L89.5189 16.3574C89.4756 16.3335 89.4304 16.3126 89.3836 16.2949L55.4297 3.19531C55.2936 3.14363 55.1475 3.11702 55 3.11702C54.8525 3.11702 54.7064 3.14363 54.5703 3.19531L20.6357 16.2969C20.4359 16.3741 20.2654 16.503 20.1456 16.6676C20.0258 16.8322 19.9619 17.0253 19.9619 17.2227C19.9619 17.42 20.0258 17.6131 20.1456 17.7777C20.2654 17.9423 20.4359 18.0712 20.6357 18.1484L34.5533 23.5234V41.1992C34.553 41.3312 34.5814 41.462 34.6368 41.584C34.6921 41.706 34.7734 41.8169 34.876 41.9103C34.9786 42.0038 35.1004 42.0779 35.2345 42.1285C35.3686 42.179 35.5124 42.2051 35.6576 42.2051C32.4513 44.982 30.0135 48.4095 28.5438 52.2071C27.074 56.0048 26.6141 60.0649 27.2014 64.0552C27.7888 68.0455 29.4069 71.8527 31.9233 75.1655C34.4397 78.4783 37.783 81.2024 41.6797 83.1152V88.6328C41.6803 88.8994 41.797 89.155 42.0044 89.3435C42.2118 89.532 42.4929 89.6382 42.7861 89.6387H67.1988C67.3443 89.6387 67.4884 89.6126 67.6227 89.5619C67.7571 89.5112 67.8792 89.437 67.982 89.3434C68.0847 89.2498 68.1662 89.1386 68.2217 89.0164C68.2771 88.8941 68.3056 88.7631 68.3053 88.6309C68.3058 88.5559 68.2964 88.4811 68.2773 88.4082V83.1348C72.1809 81.2261 75.5315 78.5037 78.0544 75.1907C80.5774 71.8777 82.201 68.0684 82.7921 64.075C83.3832 60.0815 82.9251 56.0176 81.4552 52.2161C79.9854 48.4147 77.5456 44.984 74.3359 42.2051C74.4811 42.2051 74.6249 42.179 74.759 42.1285C74.8931 42.0779 75.015 42.0038 75.1175 41.9103C75.2201 41.8169 75.3014 41.706 75.3568 41.584C75.4122 41.462 75.4405 41.3312 75.4402 41.1992V23.5215L87.8238 18.75V33.6328C87.3352 33.7938 86.8941 34.0551 86.5348 34.3965C84.0834 36.6973 84.2295 42.7402 84.2553 43.4219C84.2637 43.6835 84.3839 43.9319 84.5905 44.1143C84.7971 44.2966 85.0738 44.3985 85.3617 44.3984H92.5182C92.8057 44.3965 93.0811 44.2928 93.286 44.1094C93.491 43.9261 93.6093 43.6774 93.616 43.416ZM55 5.21484L83.4947 16.2109H55C54.7066 16.2109 54.4251 16.3169 54.2176 16.5055C54.0101 16.6942 53.8936 16.95 53.8936 17.2168C53.8936 17.4836 54.0101 17.7394 54.2176 17.928C54.4251 18.1167 54.7066 18.2227 55 18.2227H83.4947L74.0631 21.875C73.957 21.8993 73.8555 21.9381 73.7623 21.9902L55 29.2305L36.2377 21.9863C36.1442 21.9343 36.0429 21.8948 35.9369 21.8691L23.9057 17.2227L55 5.21484ZM48.7137 63.5547C45.9937 62.8906 43.9184 61.7617 42.726 60.2461C41.6711 58.9023 41.4369 57.334 42.0449 55.7109C42.423 54.709 42.9902 54.5391 43.3727 54.5391C43.4693 54.5401 43.5657 54.5493 43.6605 54.5664C45.7209 54.8769 48.7137 58.2285 48.7137 62.7695V63.5547ZM59.082 87.625H50.918V66C53.6215 66.3301 56.3614 66.3301 59.0648 66L59.082 87.625ZM80.8393 60.6719C80.8518 65.0155 79.5337 69.2765 77.0327 72.9776C74.5317 76.6787 70.9466 79.6736 66.6789 81.6269C66.4964 81.7111 66.3432 81.8397 66.2362 81.9983C66.1292 82.1569 66.0728 82.3393 66.073 82.5254V87.6289H61.2863V65.625C64.7883 64.8594 67.5061 63.416 69.0744 61.4199C70.5418 59.5508 70.8877 57.2949 70.0477 55.0625C69.358 53.2344 67.8348 52.3066 65.9656 52.5918C62.7 53.0859 59.0627 57.3926 59.0627 62.7812V63.9746C56.3607 64.3242 53.6178 64.3242 50.9158 63.9746V62.7812C50.9158 57.3926 47.2785 53.0859 44.0129 52.5918C42.1502 52.3105 40.6291 53.2344 39.9309 55.0625C39.0908 57.2949 39.4367 59.5547 40.9062 61.4199C42.4746 63.416 45.1924 64.8594 48.6943 65.625V87.625H43.9055V82.5039C43.9058 82.3184 43.8496 82.1363 43.743 81.9781C43.6364 81.8198 43.4837 81.6915 43.3018 81.6074C39.4332 79.8196 36.1224 77.1746 33.6749 73.9166C31.2275 70.6587 29.7222 66.8927 29.2981 62.9664C28.874 59.04 29.5447 55.0798 31.2483 51.4513C32.952 47.8228 35.6336 44.6429 39.0457 42.2051H70.9586C74.0443 44.394 76.5382 47.1958 78.2493 50.396C79.9604 53.5961 80.8434 57.1098 80.8307 60.668L80.8393 60.6719ZM61.2885 63.5586V62.7773C61.2885 58.2363 64.2812 54.8848 66.3416 54.5742C66.4364 54.5571 66.5328 54.548 66.6295 54.5469C67.0119 54.5469 67.5791 54.709 67.9551 55.7187C68.5674 57.3418 68.3311 58.9102 67.2762 60.2539C66.0816 61.7617 64.0063 62.8906 61.2863 63.5547L61.2885 63.5586ZM73.2359 40.1973H36.7662V24.3769L54.5703 31.25C54.7063 31.3023 54.8524 31.3293 55 31.3293C55.1476 31.3293 55.2937 31.3023 55.4297 31.25L73.2316 24.3769L73.2359 40.1973ZM86.4531 42.3828C86.4961 40.0918 86.9365 36.9004 88.116 35.7949C88.2976 35.6075 88.5452 35.4833 88.8164 35.4434H88.9303H89.0463C89.3171 35.4842 89.5644 35.6083 89.7467 35.7949C90.9262 36.9004 91.3666 40.0918 91.4096 42.3828H86.4531Z" fill="#E5E5E5"/>
</svg>
