<svg width="88" height="88" viewBox="0 0 88 88" fill="none" xmlns="http://www.w3.org/2000/svg">
<path d="M43.5938 0C41.85 0 40.6875 1.1625 40.6875 2.90625V17.4375C40.6875 19.1813 41.85 20.3438 43.5938 20.3438C45.3375 20.3438 46.5 19.1813 46.5 17.4375V2.90625C46.5 1.1625 45.3375 0 43.5938 0Z" fill="black" fill-opacity="0.5"/>
<path d="M30.8063 4.94062C30.225 3.48749 28.4813 2.61562 27.0281 3.48749C25.2844 4.06874 24.7031 5.52187 25.2844 6.97499L30.8063 20.3437C31.3875 21.5062 32.2594 22.0875 33.4219 22.0875C33.7125 22.0875 34.2937 22.0875 34.5844 21.7969C36.0375 21.2156 36.9094 19.4719 36.0375 18.0187L30.8063 4.94062Z" fill="black" fill-opacity="0.5"/>
<path d="M22.9594 27.0281C23.5406 27.6094 24.4125 27.9 24.9938 27.9C25.575 27.9 26.4469 27.6094 27.0282 27.0281C28.1907 25.8656 28.1907 24.1219 27.0282 22.9594L16.8563 12.7875C15.6938 11.625 13.95 11.625 12.7875 12.7875C11.625 13.95 11.625 15.6937 12.7875 16.8562L22.9594 27.0281Z" fill="black" fill-opacity="0.5"/>
<path d="M4.94059 30.8062L18.3093 36.3281C18.6 36.6187 19.1812 36.6187 19.4718 36.6187C20.6343 36.6187 21.7968 36.0375 22.0875 34.875C22.6687 33.4219 22.0875 31.6781 20.6343 31.0969L6.97496 25.2844C5.52184 24.7031 3.77809 25.2844 3.19684 26.7375C2.61559 28.4812 3.48746 30.225 4.94059 30.8062Z" fill="black" fill-opacity="0.5"/>
<path d="M20.3438 43.5938C20.3438 41.85 19.1813 40.6875 17.4375 40.6875H2.90625C1.1625 40.6875 0 41.85 0 43.5938C0 45.3375 1.1625 46.5 2.90625 46.5H17.4375C19.1813 46.5 20.3438 45.3375 20.3438 43.5938Z" fill="black" fill-opacity="0.5"/>
<path d="M22.0875 52.6031C21.5063 51.15 19.7625 50.2781 18.3094 51.15L4.94063 56.6719C3.48751 57.2531 2.61563 58.9969 3.48751 60.45C4.06876 61.6125 4.94063 62.1937 6.10313 62.1937C6.39376 62.1937 6.97501 62.1937 7.26563 61.9031L20.6344 56.3812C22.0875 55.8 22.6688 54.0562 22.0875 52.6031Z" fill="black" fill-opacity="0.5"/>
<path d="M27.0282 60.1594C25.8657 58.9969 24.1219 58.9969 22.9594 60.1594L12.7875 70.3313C11.625 71.4938 11.625 73.2375 12.7875 74.4C13.3688 74.9813 14.2406 75.2719 14.8219 75.2719C15.4031 75.2719 16.275 74.9813 16.8563 74.4L27.0282 64.2281C28.1907 63.0656 28.1907 61.0313 27.0282 60.1594Z" fill="black" fill-opacity="0.5"/>
<path d="M34.5844 65.1C33.1313 64.5187 31.3875 65.1 30.8063 66.5531L25.2844 79.9219C24.7031 81.375 25.2844 83.1187 26.7375 83.7C27.0281 83.9906 27.6094 83.9906 27.9 83.9906C29.0625 83.9906 30.225 83.4094 30.5156 82.2469L36.0375 68.8781C36.9094 67.425 36.0375 65.6812 34.5844 65.1Z" fill="black" fill-opacity="0.5"/>
<path d="M43.5938 66.8438C41.85 66.8438 40.6875 68.0062 40.6875 69.75V84.2812C40.6875 86.025 41.85 87.1875 43.5938 87.1875C45.3375 87.1875 46.5 86.025 46.5 84.2812V69.75C46.5 68.0062 45.3375 66.8438 43.5938 66.8438Z" fill="black" fill-opacity="0.5"/>
<path d="M56.3812 66.5531C55.8 65.1 54.0562 64.2281 52.6031 65.1C51.15 65.6812 50.2781 67.425 51.15 68.8781L56.6719 82.2469C57.2531 83.4094 58.125 83.9906 59.2875 83.9906C59.5781 83.9906 60.1594 83.9906 60.45 83.7C61.9031 83.1187 62.775 81.375 61.9031 79.9219L56.3812 66.5531Z" fill="black" fill-opacity="0.5"/>
<path d="M64.2281 60.1594C63.0656 58.9969 61.3219 58.9969 60.1594 60.1594C58.9969 61.3219 58.9969 63.0656 60.1594 64.2281L70.3312 74.4C70.9125 74.9813 71.7843 75.2719 72.3656 75.2719C72.9468 75.2719 73.8187 74.9813 74.4 74.4C75.5625 73.2375 75.5625 71.4938 74.4 70.3313L64.2281 60.1594Z" fill="black" fill-opacity="0.5"/>
<path d="M82.2468 56.3813L68.8781 50.8594C67.4249 50.2781 65.6812 50.8594 65.0999 52.3125C64.5187 53.7656 65.0999 55.5094 66.5531 56.0906L79.9218 61.6125C80.2124 61.9031 80.7937 61.9031 81.0843 61.9031C82.2468 61.9031 83.4093 61.3219 83.6999 60.1594C84.5718 58.7063 83.6999 56.9625 82.2468 56.3813Z" fill="black" fill-opacity="0.5"/>
<path d="M84.2812 40.6875H69.75C68.0062 40.6875 66.8438 41.85 66.8438 43.5938C66.8438 45.3375 68.0062 46.5 69.75 46.5H84.2812C86.025 46.5 87.1875 45.3375 87.1875 43.5938C87.1875 41.85 86.025 40.6875 84.2812 40.6875Z" fill="black" fill-opacity="0.5"/>
<path d="M65.0999 34.5844C65.6812 35.7469 66.5531 36.3281 67.7156 36.3281C68.0062 36.3281 68.5874 36.3281 68.8781 36.0375L82.2468 30.5156C83.6999 29.9344 84.5718 28.1906 83.6999 26.7375C83.1187 25.2844 81.3749 24.4125 79.9218 25.2844L66.5531 30.8062C65.0999 31.3875 64.5187 33.1312 65.0999 34.5844Z" fill="black" fill-opacity="0.5"/>
<path d="M60.1594 27.0281C60.7406 27.6094 61.6125 27.9 62.1937 27.9C62.775 27.9 63.6468 27.6094 64.2281 27.0281L74.4 16.8562C75.5625 15.6937 75.5625 13.95 74.4 12.7875C73.2375 11.625 71.4937 11.625 70.3312 12.7875L60.1594 22.9594C58.9969 24.1219 58.9969 26.1562 60.1594 27.0281Z" fill="black" fill-opacity="0.5"/>
<path d="M52.6031 22.0875C52.8937 22.3781 53.475 22.3781 53.7656 22.3781C54.9281 22.3781 56.0906 21.7969 56.3812 20.6344L61.9031 7.26563C62.4844 5.81251 61.9031 4.06876 60.45 3.48751C58.9969 2.90626 57.2531 3.48751 56.6719 4.94063L51.15 18.3094C50.2781 19.7625 51.15 21.5063 52.6031 22.0875Z" fill="black" fill-opacity="0.5"/>
</svg>
