<svg width="1443" height="303" viewBox="0 0 1443 303" fill="none" xmlns="http://www.w3.org/2000/svg">
<path d="M14.0167 301L2 297.974V6.84211H548.76L513.211 23.1842L486.173 37.7105L459.135 53.4474L427.091 75.8421L396.048 100.053L349.483 135.763L317.438 161.184L262.362 201.737L229.817 222.316L192.765 244.105L153.21 264.079L119.664 279.211L84.6148 291.316L56.0752 297.974C48.8985 298.982 34.6454 301 35.0459 301H14.0167Z" fill="#3D1D73"/>
<path d="M997.383 12.8947C997.383 13.8632 976.02 6.03509 965.339 2H1441V150.895L1380.92 144.842L1325.84 132.737C1312.15 128.702 1282.58 119.905 1273.77 117C1264.96 114.095 1248.73 106.912 1241.72 103.684L1202.67 85.5263L1079.5 39.5263L1057.47 31.0526L1030.43 22.5789C1019.41 18.9474 997.383 11.9263 997.383 12.8947Z" fill="#3D1D73"/>
<path d="M14.0167 301L2 297.974V6.84211H548.76L513.211 23.1842L486.173 37.7105L459.135 53.4474L427.091 75.8421L396.048 100.053L349.483 135.763L317.438 161.184L262.362 201.737L229.817 222.316L192.765 244.105L153.21 264.079L119.664 279.211L84.6148 291.316L56.0752 297.974C48.8985 298.982 34.6454 301 35.0459 301H14.0167Z" stroke="#3D1D73" stroke-width="4"/>
<path d="M997.383 12.8947C997.383 13.8632 976.02 6.03509 965.339 2H1441V150.895L1380.92 144.842L1325.84 132.737C1312.15 128.702 1282.58 119.905 1273.77 117C1264.96 114.095 1248.73 106.912 1241.72 103.684L1202.67 85.5263L1079.5 39.5263L1057.47 31.0526L1030.43 22.5789C1019.41 18.9474 997.383 11.9263 997.383 12.8947Z" stroke="#3D1D73" stroke-width="4"/>
</svg>
